<?xml version="1.0" standalone="no"?><!DOCTYPE svg PUBLIC "-//W3C//DTD SVG 1.1//EN" "http://www.w3.org/Graphics/SVG/1.1/DTD/svg11.dtd"><svg t="1582427523238" class="icon" viewBox="0 0 1070 1024" version="1.1" xmlns="http://www.w3.org/2000/svg" p-id="2442" xmlns:xlink="http://www.w3.org/1999/xlink" width="208.984375" height="200"><defs><style type="text/css"></style></defs><path d="M1063.893045 518.148967c-9.367612 18.735223-29.441065 30.779296-52.190979 30.779296h-49.51452v368.013317c0 58.882131-48.176289 107.05842-107.058419 107.05842h-628.968216c-58.882131 0-107.05842-48.176289-107.058419-107.05842V548.928263H58.882131C26.764605 548.928263 0 522.163658 0 490.046132c0-12.044072 4.014691-22.749914 9.367612-32.117526L487.115809 25.680237c18.735223-26.764605 54.86744-33.455756 81.632045-16.058763 6.691151 4.014691 12.044072 9.367612 16.058763 16.058763l476.409968 430.910139c12.044072 18.735223 12.044072 42.823368 2.67646 61.558591z" fill="#2F77F1" p-id="2443"></path><path d="M533.953868 742.971648c58.882131 0 107.05842 48.176289 107.05842 107.05842v173.969932h-214.11684v-173.969932c0-58.882131 48.176289-107.05842 107.05842-107.05842z" fill="#AFFCFE" p-id="2444"></path></svg>